<?xml version="1.0" encoding="utf-8"?>
<svg viewBox="-1.109 -2.547 160.734 30.406" xmlns="http://www.w3.org/2000/svg">
  <defs>
    <linearGradient gradientUnits="userSpaceOnUse" x1="219.539" y1="79.844" x2="219.539" y2="116.828" id="gradient-0" gradientTransform="matrix(1, 0, 0, 1, -151.279235, -88.644225)">
      <stop offset="0" style="stop-color: rgba(187, 218, 85, 1)"/>
      <stop offset="1" style="stop-color: rgba(135, 165, 36, 1)"/>
    </linearGradient>
  </defs>
  <path d="M 6.553 12.059 L 6.553 20.649 L 1.123 20.649 L 1.123 0.959 L 6.553 0.959 L 6.553 9.559 L 13.743 9.559 L 13.743 0.959 L 19.173 0.959 L 19.173 20.649 L 13.743 20.649 L 13.743 12.059 L 6.553 12.059 ZM 38.939 4.859 L 38.939 20.649 L 34.319 20.649 L 34.319 18.759 C 33.772 19.506 33.112 20.059 32.339 20.419 C 31.572 20.779 30.729 20.959 29.809 20.959 C 28.602 20.959 27.526 20.746 26.579 20.319 C 25.632 19.892 24.829 19.309 24.169 18.569 C 23.516 17.822 23.016 16.949 22.669 15.949 C 22.322 14.942 22.149 13.866 22.149 12.719 C 22.149 11.572 22.322 10.496 22.669 9.489 C 23.016 8.489 23.516 7.619 24.169 6.879 C 24.829 6.132 25.632 5.546 26.579 5.119 C 27.526 4.692 28.602 4.479 29.809 4.479 C 30.416 4.479 30.996 4.569 31.549 4.749 C 32.102 4.929 32.609 5.186 33.069 5.519 C 33.529 5.852 33.932 6.256 34.279 6.729 C 34.632 7.196 34.909 7.716 35.109 8.289 L 37.159 4.859 L 38.939 4.859 Z M 34.289 12.719 C 34.289 12.312 34.269 11.879 34.229 11.419 C 34.189 10.966 34.119 10.516 34.019 10.069 C 33.919 9.622 33.779 9.196 33.599 8.789 C 33.419 8.382 33.192 8.022 32.919 7.709 C 32.639 7.396 32.302 7.146 31.909 6.959 C 31.516 6.779 31.059 6.689 30.539 6.689 C 30.019 6.689 29.569 6.782 29.189 6.969 C 28.809 7.156 28.482 7.406 28.209 7.719 C 27.936 8.032 27.709 8.396 27.529 8.809 C 27.349 9.222 27.209 9.652 27.109 10.099 C 27.009 10.546 26.939 10.992 26.899 11.439 C 26.859 11.892 26.839 12.319 26.839 12.719 C 26.839 13.119 26.859 13.549 26.899 14.009 C 26.939 14.462 27.009 14.912 27.109 15.359 C 27.209 15.806 27.349 16.232 27.529 16.639 C 27.709 17.052 27.936 17.416 28.209 17.729 C 28.482 18.042 28.809 18.292 29.189 18.479 C 29.569 18.666 30.019 18.759 30.539 18.759 C 31.012 18.759 31.436 18.662 31.809 18.469 C 32.176 18.276 32.499 18.012 32.779 17.679 C 33.059 17.352 33.292 16.979 33.479 16.559 C 33.672 16.139 33.829 15.706 33.949 15.259 C 34.069 14.812 34.156 14.369 34.209 13.929 C 34.262 13.489 34.289 13.086 34.289 12.719 ZM 56.214 6.249 L 53.624 10.559 C 53.511 10.192 53.368 9.782 53.194 9.329 C 53.021 8.876 52.808 8.449 52.554 8.049 C 52.301 7.656 51.994 7.322 51.634 7.049 C 51.281 6.782 50.871 6.649 50.404 6.649 C 49.978 6.649 49.608 6.759 49.294 6.979 C 48.981 7.199 48.714 7.482 48.494 7.829 C 48.274 8.182 48.094 8.579 47.954 9.019 C 47.814 9.466 47.704 9.912 47.624 10.359 C 47.544 10.812 47.491 11.246 47.464 11.659 C 47.438 12.072 47.424 12.429 47.424 12.729 L 47.424 20.649 L 42.794 20.649 L 42.794 4.859 L 44.574 4.859 L 46.444 8.539 C 46.698 7.946 46.988 7.399 47.314 6.899 C 47.648 6.406 48.028 5.979 48.454 5.619 C 48.881 5.259 49.364 4.979 49.904 4.779 C 50.451 4.579 51.064 4.479 51.744 4.479 C 52.104 4.479 52.501 4.509 52.934 4.569 C 53.374 4.622 53.804 4.722 54.224 4.869 C 54.644 5.009 55.031 5.192 55.384 5.419 C 55.738 5.646 56.014 5.922 56.214 6.249 ZM 61.537 13.159 C 62.104 13.286 62.667 13.386 63.227 13.459 C 63.794 13.532 64.364 13.569 64.937 13.569 C 65.544 13.569 66.104 13.512 66.617 13.399 C 67.131 13.286 67.577 13.092 67.957 12.819 C 68.331 12.552 68.627 12.196 68.847 11.749 C 69.067 11.302 69.177 10.746 69.177 10.079 C 69.177 9.539 69.104 9.049 68.957 8.609 C 68.811 8.162 68.594 7.779 68.307 7.459 C 68.021 7.139 67.667 6.889 67.247 6.709 C 66.827 6.529 66.341 6.439 65.787 6.439 C 65.267 6.439 64.801 6.536 64.387 6.729 C 63.974 6.922 63.611 7.179 63.297 7.499 C 62.977 7.826 62.707 8.202 62.487 8.629 C 62.261 9.056 62.077 9.502 61.937 9.969 C 61.791 10.436 61.684 10.906 61.617 11.379 C 61.551 11.852 61.517 12.299 61.517 12.719 C 61.517 12.792 61.517 12.866 61.517 12.939 C 61.517 13.012 61.524 13.086 61.537 13.159 Z M 72.927 10.039 C 72.927 10.686 72.821 11.262 72.607 11.769 C 72.401 12.276 72.117 12.719 71.757 13.099 C 71.397 13.486 70.981 13.809 70.507 14.069 C 70.034 14.336 69.527 14.552 68.987 14.719 C 68.447 14.892 67.894 15.016 67.327 15.089 C 66.754 15.156 66.201 15.189 65.667 15.189 C 64.981 15.189 64.304 15.142 63.637 15.049 C 62.977 14.956 62.324 14.802 61.677 14.589 C 61.777 15.196 61.934 15.769 62.147 16.309 C 62.367 16.849 62.661 17.322 63.027 17.729 C 63.394 18.136 63.844 18.456 64.377 18.689 C 64.911 18.929 65.541 19.049 66.267 19.049 C 66.747 19.049 67.207 18.976 67.647 18.829 C 68.087 18.682 68.487 18.479 68.847 18.219 C 69.214 17.952 69.537 17.636 69.817 17.269 C 70.091 16.909 70.314 16.506 70.487 16.059 L 72.487 16.789 C 72.187 17.509 71.774 18.132 71.247 18.659 C 70.727 19.186 70.137 19.619 69.477 19.959 C 68.811 20.299 68.107 20.552 67.367 20.719 C 66.627 20.879 65.891 20.959 65.157 20.959 C 63.957 20.959 62.847 20.759 61.827 20.359 C 60.801 19.952 59.921 19.382 59.187 18.649 C 58.447 17.922 57.867 17.052 57.447 16.039 C 57.027 15.026 56.817 13.919 56.817 12.719 C 56.817 11.519 57.027 10.412 57.447 9.399 C 57.867 8.386 58.447 7.516 59.187 6.789 C 59.921 6.056 60.801 5.486 61.827 5.079 C 62.847 4.679 63.957 4.479 65.157 4.479 C 65.744 4.479 66.341 4.519 66.947 4.599 C 67.561 4.679 68.154 4.809 68.727 4.989 C 69.301 5.169 69.844 5.399 70.357 5.679 C 70.864 5.959 71.307 6.309 71.687 6.729 C 72.067 7.142 72.367 7.622 72.587 8.169 C 72.814 8.716 72.927 9.339 72.927 10.039 ZM 100.241 11.439 C 100.241 12.519 100.114 13.649 99.861 14.829 C 99.601 16.002 99.241 17.146 98.781 18.259 C 98.321 19.379 97.768 20.436 97.121 21.429 C 96.474 22.422 95.754 23.282 94.961 24.009 L 93.231 23.069 C 93.491 22.596 93.731 22.062 93.951 21.469 C 94.171 20.876 94.371 20.252 94.551 19.599 C 94.738 18.939 94.898 18.262 95.031 17.569 C 95.171 16.876 95.288 16.186 95.381 15.499 C 95.474 14.812 95.544 14.146 95.591 13.499 C 95.638 12.852 95.661 12.246 95.661 11.679 C 95.661 11.359 95.651 11.012 95.631 10.639 C 95.611 10.266 95.574 9.892 95.521 9.519 C 95.461 9.146 95.371 8.789 95.251 8.449 C 95.131 8.109 94.968 7.802 94.761 7.529 C 94.561 7.262 94.308 7.049 94.001 6.889 C 93.694 6.729 93.328 6.649 92.901 6.649 C 92.481 6.649 92.121 6.759 91.821 6.979 C 91.528 7.206 91.278 7.496 91.071 7.849 C 90.858 8.209 90.691 8.612 90.571 9.059 C 90.444 9.506 90.351 9.952 90.291 10.399 C 90.224 10.852 90.181 11.282 90.161 11.689 C 90.134 12.102 90.121 12.449 90.121 12.729 L 90.121 20.649 L 85.511 20.649 L 85.511 13.289 C 85.511 12.976 85.518 12.592 85.531 12.139 C 85.538 11.686 85.524 11.212 85.491 10.719 C 85.464 10.232 85.408 9.742 85.321 9.249 C 85.234 8.762 85.098 8.329 84.911 7.949 C 84.724 7.562 84.471 7.249 84.151 7.009 C 83.831 6.769 83.428 6.649 82.941 6.649 C 82.534 6.649 82.191 6.762 81.911 6.989 C 81.638 7.216 81.404 7.509 81.211 7.869 C 81.024 8.229 80.881 8.636 80.781 9.089 C 80.674 9.542 80.598 9.992 80.551 10.439 C 80.498 10.892 80.468 11.322 80.461 11.729 C 80.448 12.136 80.441 12.469 80.441 12.729 L 80.441 20.649 L 75.811 20.649 L 75.811 4.859 L 77.591 4.859 L 79.281 8.539 C 79.661 7.259 80.264 6.262 81.091 5.549 C 81.918 4.836 83.014 4.479 84.381 4.479 C 85.614 4.479 86.634 4.732 87.441 5.239 C 88.254 5.752 88.894 6.582 89.361 7.729 C 89.621 7.229 89.914 6.779 90.241 6.379 C 90.561 5.972 90.921 5.629 91.321 5.349 C 91.714 5.069 92.154 4.852 92.641 4.699 C 93.121 4.552 93.654 4.479 94.241 4.479 C 95.314 4.479 96.231 4.652 96.991 4.999 C 97.751 5.352 98.374 5.839 98.861 6.459 C 99.341 7.079 99.691 7.816 99.911 8.669 C 100.131 9.516 100.241 10.439 100.241 11.439 ZM 116.908 15.609 C 116.908 16.296 116.808 16.909 116.608 17.449 C 116.408 17.989 116.135 18.456 115.788 18.849 C 115.441 19.249 115.031 19.582 114.558 19.849 C 114.085 20.116 113.575 20.332 113.028 20.499 C 112.488 20.666 111.921 20.786 111.328 20.859 C 110.735 20.926 110.148 20.959 109.568 20.959 C 108.781 20.959 108.088 20.909 107.488 20.809 C 106.888 20.709 106.315 20.549 105.768 20.329 C 105.215 20.102 104.668 19.812 104.128 19.459 C 103.588 19.106 102.985 18.672 102.318 18.159 L 105.008 15.959 C 105.255 16.426 105.581 16.849 105.988 17.229 C 106.395 17.602 106.818 17.926 107.258 18.199 C 107.691 18.472 108.115 18.682 108.528 18.829 C 108.935 18.976 109.265 19.049 109.518 19.049 C 109.731 19.049 109.971 19.042 110.238 19.029 C 110.498 19.016 110.765 18.989 111.038 18.949 C 111.311 18.909 111.581 18.846 111.848 18.759 C 112.115 18.679 112.348 18.569 112.548 18.429 C 112.755 18.289 112.921 18.112 113.048 17.899 C 113.168 17.679 113.228 17.419 113.228 17.119 C 113.228 16.812 113.148 16.542 112.988 16.309 C 112.828 16.076 112.621 15.872 112.368 15.699 C 112.115 15.526 111.821 15.379 111.488 15.259 C 111.161 15.146 110.831 15.042 110.498 14.949 C 110.165 14.856 109.845 14.776 109.538 14.709 C 109.225 14.642 108.955 14.576 108.728 14.509 C 108.308 14.389 107.868 14.269 107.408 14.149 C 106.941 14.022 106.478 13.882 106.018 13.729 C 105.565 13.569 105.131 13.379 104.718 13.159 C 104.305 12.939 103.941 12.676 103.628 12.369 C 103.308 12.062 103.055 11.702 102.868 11.289 C 102.681 10.876 102.588 10.392 102.588 9.839 C 102.588 8.812 102.791 7.956 103.198 7.269 C 103.605 6.582 104.141 6.032 104.808 5.619 C 105.475 5.206 106.231 4.912 107.078 4.739 C 107.925 4.566 108.785 4.479 109.658 4.479 C 110.258 4.479 110.891 4.539 111.558 4.659 C 112.225 4.786 112.871 4.969 113.498 5.209 C 114.131 5.449 114.721 5.742 115.268 6.089 C 115.815 6.436 116.268 6.832 116.628 7.279 L 113.938 9.489 C 113.738 8.942 113.475 8.476 113.148 8.089 C 112.828 7.696 112.478 7.372 112.098 7.119 C 111.718 6.872 111.331 6.689 110.938 6.569 C 110.545 6.449 110.178 6.389 109.838 6.389 C 109.511 6.389 109.141 6.402 108.728 6.429 C 108.321 6.456 107.938 6.532 107.578 6.659 C 107.218 6.792 106.911 6.986 106.658 7.239 C 106.405 7.499 106.278 7.859 106.278 8.319 C 106.278 8.646 106.355 8.926 106.508 9.159 C 106.661 9.392 106.858 9.592 107.098 9.759 C 107.345 9.926 107.628 10.066 107.948 10.179 C 108.261 10.299 108.581 10.399 108.908 10.479 C 109.235 10.566 109.555 10.642 109.868 10.709 C 110.175 10.776 110.451 10.846 110.698 10.919 C 111.118 11.032 111.561 11.152 112.028 11.279 C 112.501 11.399 112.965 11.539 113.418 11.699 C 113.871 11.859 114.311 12.046 114.738 12.259 C 115.165 12.472 115.535 12.736 115.848 13.049 C 116.168 13.356 116.425 13.719 116.618 14.139 C 116.811 14.552 116.908 15.042 116.908 15.609 ZM 133.479 0.959 L 133.479 20.649 L 128.049 20.649 L 128.049 0.959 L 133.479 0.959 ZM 158.483 10.779 C 158.483 12.366 158.21 13.796 157.663 15.069 C 157.117 16.336 156.36 17.412 155.393 18.299 C 154.427 19.179 153.283 19.859 151.963 20.339 C 150.637 20.812 149.203 21.049 147.663 21.049 C 146.123 21.049 144.693 20.812 143.373 20.339 C 142.053 19.859 140.91 19.179 139.943 18.299 C 138.977 17.412 138.22 16.336 137.673 15.069 C 137.127 13.796 136.853 12.366 136.853 10.779 C 136.853 9.166 137.123 7.722 137.663 6.449 C 138.21 5.176 138.963 4.102 139.923 3.229 C 140.883 2.349 142.023 1.672 143.343 1.199 C 144.67 0.732 146.11 0.499 147.663 0.499 C 149.223 0.499 150.663 0.732 151.983 1.199 C 153.31 1.672 154.453 2.349 155.413 3.229 C 156.373 4.102 157.123 5.176 157.663 6.449 C 158.21 7.722 158.483 9.166 158.483 10.779 Z M 152.953 10.779 C 152.953 10.179 152.927 9.562 152.873 8.929 C 152.82 8.302 152.72 7.692 152.573 7.099 C 152.427 6.506 152.23 5.949 151.983 5.429 C 151.73 4.909 151.407 4.456 151.013 4.069 C 150.62 3.682 150.15 3.379 149.603 3.159 C 149.05 2.932 148.403 2.819 147.663 2.819 C 146.917 2.819 146.267 2.932 145.713 3.159 C 145.153 3.379 144.68 3.682 144.293 4.069 C 143.9 4.449 143.58 4.899 143.333 5.419 C 143.087 5.939 142.893 6.492 142.753 7.079 C 142.613 7.666 142.513 8.276 142.453 8.909 C 142.4 9.542 142.373 10.166 142.373 10.779 C 142.373 11.379 142.4 11.992 142.453 12.619 C 142.513 13.252 142.613 13.862 142.753 14.449 C 142.9 15.036 143.1 15.589 143.353 16.109 C 143.607 16.629 143.927 17.082 144.313 17.469 C 144.707 17.856 145.18 18.162 145.733 18.389 C 146.287 18.622 146.93 18.739 147.663 18.739 C 148.383 18.739 149.013 18.622 149.553 18.389 C 150.093 18.156 150.557 17.839 150.943 17.439 C 151.337 17.046 151.663 16.586 151.923 16.059 C 152.183 15.539 152.39 14.986 152.543 14.399 C 152.69 13.806 152.797 13.199 152.863 12.579 C 152.923 11.959 152.953 11.359 152.953 10.779 Z" transform="matrix(1, 0, 0, 1, 0, 0)" style="fill: rgb(115, 191, 144); stroke: url(#gradient-0); white-space: pre;"/>
</svg>